<svg width="224" height="224" viewBox="0 0 224 224" fill="none" xmlns="http://www.w3.org/2000/svg">
<circle cx="112" cy="112" r="112" fill="white"/>
<path d="M22.8419 120.014L29.7299 100.47H34.0419L41.5459 120.014H38.0459L31.9699 102.906H31.8019L26.1179 120.014H22.8419ZM54.3422 107.302L52.8302 105.062L55.5742 100.47H58.6542L54.3422 107.302ZM42.4982 120.014L49.2462 110.046V109.878L43.1142 100.47H46.2222L59.2702 120.014H56.1062L50.8982 112.09L45.7742 120.014H42.4982ZM61.0022 110.69H64.0542C64.2222 114.806 66.7982 117.466 70.9702 117.466C75.3102 117.466 78.0262 114.666 78.0262 110.242C78.0262 105.958 75.4782 103.214 71.3902 103.046V100.19C77.1302 100.358 81.0222 104.222 81.0222 110.242C81.0222 116.57 77.1022 120.294 70.9702 120.294C65.1462 120.294 61.1982 116.514 61.0022 110.69ZM84.3748 113.91V100.47H87.4268V113.91H84.3748ZM84.3748 120.014V117.046H98.0668V120.014H84.3748ZM100.076 110.69H103.128C103.296 114.806 105.872 117.466 110.044 117.466C114.384 117.466 117.1 114.666 117.1 110.242C117.1 105.958 114.552 103.214 110.464 103.046V100.19C116.204 100.358 120.096 104.222 120.096 110.242C120.096 116.57 116.176 120.294 110.044 120.294C104.22 120.294 100.272 116.514 100.076 110.69ZM121.741 103.41V100.47H136.777V103.41H121.741ZM127.789 120.014V106.882H130.785V120.014H127.789ZM139.418 120.014V110.41H146.866C149.106 110.41 151.094 109.234 151.094 106.574C151.094 103.802 148.938 103.046 146.838 103.046H139.418V100.47H147.258C151.234 100.47 153.866 102.346 153.866 106.49C153.866 108.814 152.634 111.138 150.562 112.202L150.17 112.398L154.65 120.014H151.346L147.594 112.818H142.442V120.014H139.418ZM156.432 110.69H159.484C159.652 114.806 162.228 117.466 166.4 117.466C170.74 117.466 173.456 114.666 173.456 110.242C173.456 105.958 170.908 103.214 166.82 103.046V100.19C172.56 100.358 176.452 104.222 176.452 110.242C176.452 116.57 172.532 120.294 166.4 120.294C160.576 120.294 156.628 116.514 156.432 110.69ZM193.132 120.014L180.028 100.47H182.968L193.328 115.45L193.412 100.47H196.24V120.014H193.132ZM179.804 120.014V106.406L182.716 110.606V120.014H179.804Z" fill="black"/>
</svg>
